<svg width="50" height="50" viewBox="0 0 50 50" fill="none" xmlns="http://www.w3.org/2000/svg">
<mask id="mask0_175_51" style="mask-type:alpha" maskUnits="userSpaceOnUse" x="0" y="0" width="50" height="50">
<rect width="50" height="50" fill="#D9D9D9"/>
</mask>
<g mask="url(#mask0_175_51)">
<path d="M37.3958 27.8125L34.7716 25.2344L34.427 24.8958L37.3958 27.8125ZM22.9166 43.75L16.302 37.8125C13.802 35.5556 11.6579 33.5417 9.86971 31.7708C8.08152 30 6.60582 28.3333 5.44263 26.7708C4.27943 25.2083 3.42874 23.6979 2.89054 22.2396C2.35235 20.7812 2.08325 19.2535 2.08325 17.6562C2.08325 14.3924 3.177 11.6753 5.3645 9.50521C7.552 7.33507 10.2777 6.25 13.5416 6.25C15.3471 6.25 17.0659 6.63194 18.6978 7.39583C20.3298 8.15972 21.736 9.23611 22.9166 10.625C24.0971 9.23611 25.5034 8.15972 27.1353 7.39583C28.7673 6.63194 30.486 6.25 32.2916 6.25C35.1041 6.25 37.4652 7.03993 39.3749 8.61979C41.2846 10.1997 42.5867 12.1875 43.2812 14.5833H38.8541C38.2291 13.1944 37.309 12.1528 36.0937 11.4583C34.8784 10.7639 33.611 10.4167 32.2916 10.4167C30.5208 10.4167 28.993 10.8941 27.7083 11.849C26.4235 12.8038 25.2256 14.0625 24.1145 15.625H21.7187C20.6423 14.0625 19.4183 12.8038 18.0468 11.849C16.6753 10.8941 15.1735 10.4167 13.5416 10.4167C11.5624 10.4167 9.85235 11.1024 8.41138 12.474C6.97041 13.8455 6.24992 15.5729 6.24992 17.6562C6.24992 18.8021 6.49297 19.9653 6.97909 21.1458C7.4652 22.3264 8.33325 23.6892 9.58325 25.2344C10.8333 26.7795 12.5346 28.5851 14.6874 30.651C16.8402 32.717 19.5833 35.2083 22.9166 38.125C23.8194 37.3264 24.8784 36.4063 26.0937 35.3646C27.3089 34.3229 28.2812 33.4549 29.0103 32.7604L31.9791 35.7292C31.2152 36.4236 30.243 37.283 29.0624 38.3073C27.8819 39.3316 26.8402 40.2431 25.9374 41.0417L22.9166 43.75Z" fill="#FF6F6F"/>
</g>
<mask id="mask1_175_51" style="mask-type:alpha" maskUnits="userSpaceOnUse" x="30" y="18" width="15" height="15">
<rect x="30" y="18" width="15" height="15" fill="#D9D9D9"/>
</mask>
<g mask="url(#mask1_175_51)">
<path d="M33.1137 32.1667L37.447 27.8333L41.7803 32.1667L44.1137 29.8333L39.7803 25.5L44.1137 21.1667L41.7803 18.8333L37.447 23.1667L33.1137 18.8333L30.7803 21.1667L35.1137 25.5L30.7803 29.8333L33.1137 32.1667ZM24.1137 38.8333C23.197 38.8333 22.4123 38.5069 21.7595 37.8542C21.1067 37.2014 24.1134 36.4167 24.1134 35.5L24.1137 15.5C23.4609 16.1528 24.1137 14.5833 24.1137 15.5C23.197 15.5 24.7664 14.8472 24.1137 15.5L50.7803 15.5C48.4262 17.8542 51.697 15.5 50.7803 15.5C50.7803 14.5833 51.4331 16.1528 50.7803 15.5L50.7803 35.5C50.7803 36.4167 53.7873 37.2014 53.1345 37.8542C52.4817 38.5069 51.697 38.8333 50.7803 38.8333H24.1137ZM24.1134 35.5H50.7803L50.7803 15.5L24.1137 15.5L24.1134 35.5Z" fill="#FF6F6F"/>
</g>
</svg>
